/* XPM */
static string fpigsicon_xpm[] = {
"32 32 894 2",
"  	c None",
". 	c #EDEDED",
"+ 	c #E7E7E7",
"@ 	c #E7E7E8",
"# 	c #E5E7E8",
"$ 	c #E6E7E8",
"% 	c #E7E8E9",
"& 	c #E9E9E9",
"* 	c #EAEAEA",
"= 	c #E6E8E6",
"- 	c #E6E9E7",
"; 	c #E7E8E6",
"> 	c #E6E7E6",
", 	c #E5E6E5",
"' 	c #E5E7E5",
") 	c #E4E6E4",
"! 	c #E9E8E9",
"~ 	c #E8E8E7",
"{ 	c #D2D6DB",
"] 	c #98AEC8",
"^ 	c #899EB9",
"/ 	c #89A3C2",
"( 	c #91ADCC",
"_ 	c #8FA9C8",
": 	c #90A9C8",
"< 	c #92ACCB",
"[ 	c #91AED0",
"} 	c #89A6C6",
"| 	c #8AA5C3",
"1 	c #B6C5D6",
"2 	c #E1E1E1",
"3 	c #E3E3E3",
"4 	c #ADCBAB",
"5 	c #8CB487",
"6 	c #8CB488",
"7 	c #8EC08C",
"8 	c #91BF8E",
"9 	c #90BD8C",
"0 	c #8FBD8B",
"a 	c #8FBD8C",
"b 	c #90BE8D",
"c 	c #92C18F",
"d 	c #8CBD8C",
"e 	c #86B485",
"f 	c #9DC39A",
"g 	c #D7DCD7",
"h 	c #E0DFE0",
"i 	c #E8E8E9",
"j 	c #A1B7D1",
"k 	c #587AA2",
"l 	c #7C6D72",
"m 	c #75727E",
"n 	c #5E7A9D",
"o 	c #6D97C7",
"p 	c #7096C3",
"q 	c #7097C6",
"r 	c #739AC8",
"s 	c #5C87B8",
"t 	c #677D9C",
"u 	c #6B6E80",
"v 	c #62718A",
"w 	c #6F9AC9",
"x 	c #CDD3DE",
"y 	c #CBD9C7",
"z 	c #68AC61",
"A 	c #6B7B54",
"B 	c #8B7F62",
"C 	c #628853",
"D 	c #66AC62",
"E 	c #6FB568",
"F 	c #70B569",
"G 	c #66AF63",
"H 	c #5E9758",
"I 	c #6E8859",
"J 	c #66704E",
"K 	c #69AD62",
"L 	c #9AC095",
"M 	c #E9E3EA",
"N 	c #E6E7E7",
"O 	c #97B1CF",
"P 	c #677C9A",
"Q 	c #C08E7F",
"R 	c #BF8873",
"S 	c #856760",
"T 	c #596C87",
"U 	c #4F78A3",
"V 	c #50749B",
"W 	c #48719C",
"X 	c #8C818A",
"Y 	c #76584F",
"Z 	c #C08671",
"` 	c #8F7A7C",
" .	c #6393C5",
"..	c #CDD2E0",
"+.	c #BFD4B9",
"@.	c #70B16A",
"#.	c #937B67",
"$.	c #E3A193",
"%.	c #9B7066",
"&.	c #6A7454",
"*.	c #519254",
"=.	c #4F8B50",
"-.	c #4C8F52",
";.	c #6C8E5D",
">.	c #846B5B",
",.	c #AA796F",
"'.	c #B17972",
").	c #66A763",
"!.	c #95C090",
"~.	c #EAE2EA",
"{.	c #98B2D1",
"].	c #6D7B95",
"^.	c #C28C7A",
"/.	c #EAAD9A",
"(.	c #715349",
"_.	c #977267",
":.	c #BB948C",
"<.	c #C3988F",
"[.	c #AA867F",
"}.	c #7A594E",
"|.	c #AE8172",
"1.	c #E5A793",
"2.	c #978183",
"3.	c #5F8EBF",
"4.	c #CFD4E1",
"5.	c #C1D4BB",
"6.	c #6FB169",
"7.	c #A0796B",
"8.	c #F5B6A1",
"9.	c #A3786B",
"0.	c #815F55",
"a.	c #B5917B",
"b.	c #C59C84",
"c.	c #BB967F",
"d.	c #8B6C5D",
"e.	c #946A61",
"f.	c #DCA692",
"g.	c #C79083",
"h.	c #5E9D5B",
"i.	c #98C392",
"j.	c #E8E1E9",
"k.	c #99B2D1",
"l.	c #627694",
"m.	c #CA9585",
"n.	c #916A5E",
"o.	c #D59D8C",
"p.	c #E1A593",
"q.	c #E5A895",
"r.	c #E7AA97",
"s.	c #E4A794",
"t.	c #E4A795",
"u.	c #AA7D70",
"v.	c #BF8A7A",
"w.	c #87777C",
"x.	c #6695C7",
"y.	c #CED4E0",
"z.	c #6FB16A",
"A.	c #927766",
"B.	c #CC9785",
"C.	c #A67C6E",
"D.	c #E9AB98",
"E.	c #E7A996",
"F.	c #E8AA98",
"G.	c #E8A997",
"H.	c #C18F7E",
"I.	c #B88B7B",
"J.	c #A5776B",
"K.	c #66A863",
"L.	c #96C192",
"M.	c #E8E2EA",
"N.	c #9BB2CE",
"O.	c #6188B6",
"P.	c #535059",
"Q.	c #BD8B79",
"R.	c #E4A896",
"S.	c #987569",
"T.	c #ECAD9B",
"U.	c #BC8A7C",
"V.	c #C99585",
"W.	c #EAAC99",
"X.	c #795D57",
"Y.	c #597596",
"Z.	c #709AC8",
"`.	c #CDD3E1",
" +	c #C0D6BC",
".+	c #70B16B",
"++	c #598051",
"@+	c #8F655D",
"#+	c #F3B39E",
"$+	c #AB8174",
"%+	c #CC9888",
"&+	c #E6A996",
"*+	c #DBA18F",
"=+	c #B68778",
"-+	c #EEB19E",
";+	c #AA7A70",
">+	c #576D49",
",+	c #6FB26A",
"'+	c #94C090",
")+	c #E8E2E9",
"!+	c #E8E8E8",
"~+	c #9AB0CC",
"{+	c #6D98CA",
"]+	c #64728B",
"^+	c #CB9787",
"/+	c #EBAD9A",
"(+	c #302724",
"_+	c #D59D8D",
":+	c #FFBDA9",
"<+	c #614941",
"[+	c #7F625A",
"}+	c #E6AA97",
"|+	c #A48079",
"1+	c #6592C4",
"2+	c #6E95C1",
"3+	c #CED4E2",
"4+	c #C1D7BD",
"5+	c #70B26B",
"6+	c #6FAB68",
"7+	c #927A66",
"8+	c #FFC3AE",
"9+	c #57443D",
"0+	c #9F786C",
"a+	c #ECAE9A",
"b+	c #C59181",
"c+	c #3D302D",
"d+	c #D9A593",
"e+	c #D29186",
"f+	c #6B9F61",
"g+	c #95C292",
"h+	c #E9E2EA",
"i+	c #6994C8",
"j+	c #75798C",
"k+	c #BF8D7E",
"l+	c #DBA190",
"m+	c #C69181",
"n+	c #BF8C7E",
"o+	c #C49081",
"p+	c #BA897A",
"q+	c #DBA08E",
"r+	c #D9A08E",
"s+	c #AC857C",
"t+	c #5E88B7",
"u+	c #7097C3",
"v+	c #CED4E1",
"w+	c #C1D7BC",
"x+	c #70A768",
"y+	c #9E7B6B",
"z+	c #D29B8A",
"A+	c #C29080",
"B+	c #C59282",
"C+	c #C28F80",
"D+	c #CC9685",
"E+	c #DFA693",
"F+	c #D09285",
"G+	c #63915B",
"H+	c #95C291",
"I+	c #99B0CC",
"J+	c #6E98C9",
"K+	c #5B6D87",
"L+	c #CA9889",
"M+	c #8E695E",
"N+	c #BF8E7E",
"O+	c #CD9787",
"P+	c #CB9585",
"Q+	c #C99484",
"R+	c #AA7E71",
"S+	c #AE8175",
"T+	c #8F7370",
"U+	c #6B98CA",
"V+	c #6D94BF",
"W+	c #CED5E2",
"X+	c #C2D7BD",
"Y+	c #70B36C",
"Z+	c #6CA766",
"`+	c #937E66",
" @	c #BF8C7D",
".@	c #A87D6F",
"+@	c #D39C8A",
"@@	c #C79383",
"#@	c #D59C8B",
"$@	c #B9887A",
"%@	c #AF8474",
"&@	c #A7746B",
"*@	c #6EA766",
"=@	c #6EB069",
"-@	c #E9E2E9",
";@	c #9AB1CC",
">@	c #6E95C3",
",@	c #5981AF",
"'@	c #AF887F",
")@	c #976F62",
"!@	c #DDA391",
"~@	c #A87C6E",
"{@	c #C79382",
"]@	c #A47A6E",
"^@	c #CF9581",
"/@	c #546883",
"(@	c #779ECD",
"_@	c #6B93C0",
":@	c #CFD5E2",
"<@	c #71B36B",
"[@	c #6CB069",
"}@	c #809064",
"|@	c #AD766F",
"1@	c #D69F8D",
"2@	c #9C7367",
"3@	c #E8AC98",
"4@	c #9F7569",
"5@	c #CB9785",
"6@	c #C4897E",
"7@	c #7B785B",
"8@	c #6CAD67",
"9@	c #95C391",
"0@	c #6A90BF",
"a@	c #7499C6",
"b@	c #637D9E",
"c@	c #403230",
"d@	c #E1A694",
"e@	c #DFA492",
"f@	c #F0B29F",
"g@	c #7C5A4F",
"h@	c #5F6576",
"i@	c #7198C7",
"j@	c #7196C2",
"k@	c #6D95C2",
"l@	c #CFD5E4",
"m@	c #C2D8BD",
"n@	c #73B56D",
"o@	c #6CAA66",
"p@	c #3E4B33",
"q@	c #AF7E71",
"r@	c #E1A693",
"s@	c #DEA492",
"t@	c #BF8B7D",
"u@	c #585441",
"v@	c #6AA362",
"w@	c #6EB169",
"x@	c #95C392",
"y@	c #EAE3EA",
"z@	c #E8E9E9",
"A@	c #9AB1CD",
"B@	c #6A91C0",
"C@	c #7497C2",
"D@	c #628AB8",
"E@	c #9E776C",
"F@	c #A0786C",
"G@	c #9B7267",
"H@	c #9A7266",
"I@	c #8B675E",
"J@	c #BA8674",
"K@	c #52657F",
"L@	c #759BC9",
"M@	c #7095C2",
"N@	c #6C95C2",
"O@	c #73B46D",
"P@	c #69B167",
"Q@	c #848A65",
"R@	c #AA796E",
"S@	c #9F766A",
"T@	c #A0776A",
"U@	c #956E62",
"V@	c #AE7B70",
"W@	c #7E795C",
"X@	c #61A15E",
"Y@	c #70B36B",
"Z@	c #678FBE",
"`@	c #789ECC",
" #	c #4D6887",
".#	c #E0A594",
"+#	c #EEAF9B",
"@#	c #F1B19D",
"##	c #F0B09D",
"$#	c #F7B5A1",
"%#	c #776568",
"&#	c #739DCD",
"*#	c #7095C1",
"=#	c #6B94C2",
"-#	c #CED5E3",
";#	c #C3D8BF",
">#	c #6DB167",
",#	c #73B66D",
"'#	c #5B9B59",
")#	c #9F8B70",
"!#	c #F9B2A1",
"~#	c #F2B19D",
"{#	c #F0B19C",
"]#	c #F9B7A1",
"^#	c #AB8071",
"/#	c #699D61",
"(#	c #6FB36B",
"_#	c #6DB067",
":#	c #95C290",
"<#	c #EBEBEA",
"[#	c #BBC8D8",
"}#	c #7497C1",
"|#	c #759CCC",
"1#	c #707486",
"2#	c #E2A794",
"3#	c #EAAE9B",
"4#	c #A67C6F",
"5#	c #7098C7",
"6#	c #7496C1",
"7#	c #8EAACB",
"8#	c #DBDFE4",
"9#	c #DDE4DB",
"0#	c #83BB7E",
"a#	c #74B66E",
"b#	c #6D9F63",
"c#	c #B5907A",
"d#	c #EEAE9C",
"e#	c #E4AA97",
"f#	c #E5AA96",
"g#	c #E4A996",
"h#	c #E9AE99",
"i#	c #CB8E82",
"j#	c #789E67",
"k#	c #70B26C",
"l#	c #79B573",
"m#	c #BBD2B9",
"n#	c #E3E0E3",
"o#	c #EBEBEB",
"p#	c #E4E4E4",
"q#	c #CDD9E4",
"r#	c #C5D7E8",
"s#	c #CACFD5",
"t#	c #E6DDD9",
"u#	c #E7DDDB",
"v#	c #E8DDDB",
"w#	c #E8DEDB",
"x#	c #E9DFDD",
"y#	c #DDD5D4",
"z#	c #C4D6E5",
"A#	c #C8D8E6",
"B#	c #DCE2E7",
"C#	c #EAE8E7",
"D#	c #EBE9EB",
"E#	c #D7E1D8",
"F#	c #C6DACB",
"G#	c #C7D4C9",
"H#	c #DCD2D0",
"I#	c #EADADA",
"J#	c #E8DAD8",
"K#	c #E8D9D8",
"L#	c #E7D8D7",
"M#	c #E7D9D7",
"N#	c #E4D4D5",
"O#	c #C9D2C9",
"P#	c #C4D6C9",
"Q#	c #CDDBCF",
"R#	c #E8E6E8",
"S#	c #DCDDDC",
"T#	c #E4E1E1",
"U#	c #E8C3B6",
"V#	c #EDBAA9",
"W#	c #EDBEB0",
"X#	c #E0B8AC",
"Y#	c #E2B8AC",
"Z#	c #E3B9AC",
"`#	c #E3B9AD",
" $	c #E4BAAD",
".$	c #E2B8AB",
"+$	c #E4BAAE",
"@$	c #EFBEAF",
"#$	c #EDBCAC",
"$$	c #E7D3CD",
"%$	c #E8EAEA",
"&$	c #E7E8EA",
"*$	c #E9E3D5",
"=$	c #EFE5C8",
"-$	c #F2E7CB",
";$	c #E8E0C6",
">$	c #E3DDC2",
",$	c #E5DEC3",
"'$	c #E4DEC3",
")$	c #E3DEC3",
"!$	c #E3DDC3",
"~$	c #E2DBC1",
"{$	c #EAE0C6",
"]$	c #EFE4C9",
"^$	c #E7DDC9",
"/$	c #DDDDDC",
"($	c #EBEAEA",
"_$	c #C5735B",
":$	c #9E6C5D",
"<$	c #A56754",
"[$	c #DE886D",
"}$	c #DC876D",
"|$	c #DE876C",
"1$	c #DF886D",
"2$	c #DD876D",
"3$	c #E0896E",
"4$	c #DD866C",
"5$	c #9F624F",
"6$	c #B16D58",
"7$	c #E8967B",
"8$	c #E5D7D2",
"9$	c #E6E5DC",
"0$	c #E1D29C",
"a$	c #A59271",
"b$	c #A68C70",
"c$	c #CCBF8C",
"d$	c #E7D59E",
"e$	c #E2D19C",
"f$	c #E1D19B",
"g$	c #E0D19B",
"h$	c #E1D09B",
"i$	c #E7D79F",
"j$	c #B9AD7E",
"k$	c #988B69",
"l$	c #E3D39C",
"m$	c #E1D9BD",
"n$	c #DEDFE3",
"o$	c #EAE9E9",
"p$	c #E3AB9A",
"q$	c #BD725C",
"r$	c #B78577",
"s$	c #B38679",
"t$	c #815B4F",
"u$	c #C77961",
"v$	c #D7836A",
"w$	c #D78369",
"x$	c #DB866B",
"y$	c #A76855",
"z$	c #815F54",
"A$	c #AF8375",
"B$	c #A97464",
"C$	c #E28769",
"D$	c #E5D0CC",
"E$	c #E4E1CF",
"F$	c #E2D29B",
"G$	c #A2836E",
"H$	c #CB9485",
"I$	c #89665B",
"J$	c #AC9D76",
"K$	c #DACB96",
"L$	c #D9C995",
"M$	c #DDCD98",
"N$	c #C5B888",
"O$	c #836D58",
"P$	c #A2776A",
"Q$	c #9D7065",
"R$	c #D9CC95",
"S$	c #E0D5B1",
"T$	c #DEDFE5",
"U$	c #E4AB9A",
"V$	c #B9725D",
"W$	c #C69384",
"X$	c #E8AA96",
"Y$	c #856258",
"Z$	c #79574C",
"`$	c #A66E5D",
" %	c #AA7462",
".%	c #86594B",
"+%	c #A17769",
"@%	c #916B60",
"#%	c #E9AC99",
"$%	c #B37D6B",
"%%	c #D98063",
"&%	c #E7D2CD",
"*%	c #E5E1D0",
"=%	c #E1D19A",
"-%	c #A57C6D",
";%	c #F7B7A2",
">%	c #AA7E70",
",%	c #6E5148",
"'%	c #9E8469",
")%	c #A5876E",
"!%	c #9F876B",
"~%	c #8B6D5C",
"{%	c #91695F",
"]%	c #D59F8C",
"^%	c #C18D7E",
"/%	c #C8BC89",
"(%	c #E3D7B3",
"_%	c #DDDFE4",
":%	c #E4AC9A",
"<%	c #B36D58",
"[%	c #CC9988",
"}%	c #B58677",
"|%	c #A97B6F",
"1%	c #EBAC99",
"2%	c #F3B4A1",
"3%	c #F0B39F",
"4%	c #F9BAA6",
"5%	c #B68677",
"6%	c #B48576",
"7%	c #CE9A89",
"8%	c #AC7868",
"9%	c #DD8265",
"0%	c #E6D2CC",
"a%	c #E5E1CF",
"b%	c #E1D199",
"c%	c #9E7769",
"d%	c #E4A895",
"e%	c #977063",
"f%	c #F3B09E",
"g%	c #F1AF9D",
"h%	c #F4B09F",
"i%	c #D69D8D",
"j%	c #A47A6C",
"k%	c #CE9987",
"l%	c #AE7D72",
"m%	c #CFC28E",
"n%	c #E1D6B1",
"o%	c #DDDEE4",
"p%	c #EAE9EA",
"q%	c #E3AC9B",
"r%	c #C7755C",
"s%	c #886054",
"t%	c #A47A6D",
"u%	c #F0B09C",
"v%	c #C79787",
"w%	c #EBAD99",
"x%	c #DAA08E",
"y%	c #886358",
"z%	c #A76956",
"A%	c #E88B6D",
"B%	c #E4E1D0",
"C%	c #E2D29A",
"D%	c #9C886B",
"E%	c #8F675E",
"F%	c #DDA28F",
"G%	c #D4A08F",
"H%	c #DCA492",
"I%	c #E0A592",
"J%	c #EDAF9C",
"K%	c #A07569",
"L%	c #87705A",
"M%	c #DFD199",
"N%	c #DED3AE",
"O%	c #DFA999",
"P%	c #E6866A",
"Q%	c #945D4E",
"R%	c #ECAD9A",
"S%	c #171514",
"T%	c #CE9888",
"U%	c #FFBCA6",
"V%	c #5D463F",
"W%	c #81645A",
"X%	c #E8AB98",
"Y%	c #A07367",
"Z%	c #D17D63",
"`%	c #E0886B",
" &	c #E5D1CC",
".&	c #E5E3D0",
"+&	c #CABD8C",
"@&	c #977363",
"#&	c #FFC5AE",
"$&	c #42332F",
"%&	c #8E6B60",
"&&	c #E6A997",
"*&	c #BE8C7C",
"=&	c #392D2A",
"-&	c #DCA593",
";&	c #B98479",
">&	c #BBAD80",
",&	c #DFD098",
"'&	c #DFD5B0",
")&	c #AD705E",
"!&	c #C69282",
"~&	c #E7AB97",
"{&	c #F1B19E",
"]&	c #C08F7F",
"^&	c #E9AC98",
"/&	c #B88475",
"(&	c #CA795F",
"_&	c #E1876B",
":&	c #E5E2D0",
"<&	c #E1D29A",
"[&	c #D4C392",
"}&	c #A9816F",
"|&	c #F7B6A2",
"1&	c #CB9685",
"2&	c #DDA290",
"3&	c #DCA290",
"4&	c #AB7E71",
"5&	c #E2A795",
"6&	c #CB9184",
"7&	c #B7A87D",
"8&	c #DECF97",
"9&	c #DED4AE",
"0&	c #EBE9E9",
"a&	c #DEA999",
"b&	c #E5876A",
"c&	c #A76A59",
"d&	c #B98779",
"e&	c #AB7F71",
"f&	c #A5796C",
"g&	c #A17669",
"h&	c #A67A6C",
"i&	c #A97C6F",
"j&	c #D8A08E",
"k&	c #AF8172",
"l&	c #A77869",
"m&	c #DA8268",
"n&	c #DE8569",
"o&	c #E5D0CB",
"p&	c #D4C593",
"q&	c #9C7968",
"r&	c #A4796C",
"s&	c #A0766A",
"t&	c #A4786B",
"u&	c #C49181",
"v&	c #A17269",
"w&	c #C8B989",
"x&	c #DDCE96",
"y&	c #DED4AF",
"z&	c #DCDDE3",
"A&	c #DEA899",
"B&	c #E5876B",
"C&	c #AC6753",
"D&	c #D19A87",
"E&	c #89655A",
"F&	c #E9AB99",
"G&	c #D39D8A",
"H&	c #E2A895",
"I&	c #886459",
"J&	c #C99584",
"K&	c #926051",
"L&	c #EA8E71",
"M&	c #DB8367",
"N&	c #D5C894",
"O&	c #B19476",
"P&	c #A8786E",
"Q&	c #CF9987",
"R&	c #EDAF9B",
"S&	c #D09989",
"T&	c #B38476",
"U&	c #A5796D",
"V&	c #987663",
"W&	c #D7C793",
"X&	c #DCCB96",
"Y&	c #DFD4AF",
"Z&	c #E9E8E8",
"`&	c #DFA998",
" *	c #DC8167",
".*	c #E0886E",
"+*	c #AB705D",
"@*	c #644840",
"#*	c #D8A08F",
"$*	c #BD8B7B",
"%*	c #D09988",
"&*	c #DDA390",
"**	c #8B675B",
"=*	c #A67364",
"-*	c #C8785F",
";*	c #DD8467",
">*	c #E4D0CB",
",*	c #E0D099",
"'*	c #E2D49C",
")*	c #CCBB8C",
"!*	c #685245",
"~*	c #B88879",
"{*	c #B08273",
"]*	c #EBAE9A",
"^*	c #B28375",
"/*	c #856558",
"(*	c #BDAC81",
"_*	c #DBCB97",
":*	c #DCCC97",
"<*	c #DED4B0",
"[*	c #E0A999",
"}*	c #DC8067",
"|*	c #DE8970",
"1*	c #CF7C62",
"2*	c #73534B",
"3*	c #B38475",
"4*	c #B18375",
"5*	c #AA7D6F",
"6*	c #987266",
"7*	c #8B5443",
"8*	c #E78D72",
"9*	c #DA856A",
"0*	c #DD8469",
"a*	c #E4CFCB",
"b*	c #DFCF99",
"c*	c #E0D39A",
"d*	c #8F7D61",
"e*	c #B48677",
"f*	c #AD8071",
"g*	c #9D7268",
"h*	c #836E59",
"i*	c #CCC08D",
"j*	c #DECE9A",
"k*	c #DED3B0",
"l*	c #DCDCE2",
"m*	c #E8E6E6",
"n*	c #DB8269",
"o*	c #E68F75",
"p*	c #A4634F",
"q*	c #DBA28F",
"r*	c #D39D8C",
"s*	c #EEB19D",
"t*	c #8C5F52",
"u*	c #E58D71",
"v*	c #DB876D",
"w*	c #DD846A",
"x*	c #E3CECB",
"y*	c #E3E1CD",
"z*	c #DECF9A",
"A*	c #C7BD89",
"B*	c #B9967D",
"C*	c #DFA494",
"D*	c #D29C8B",
"E*	c #D29C8C",
"F*	c #CE9989",
"G*	c #E1A695",
"H*	c #A98171",
"I*	c #C2B486",
"J*	c #DBDDE2",
"K*	c #E7E6E6",
"L*	c #DFB5A9",
"M*	c #DA7D62",
"N*	c #E68D73",
"O*	c #9F6554",
"P*	c #E2A693",
"Q*	c #E7A997",
"R*	c #E5A896",
"S*	c #EFAF9C",
"T*	c #9C7164",
"U*	c #E1886D",
"V*	c #DA836A",
"W*	c #DB8C74",
"X*	c #E3D4CF",
"Y*	c #E4E2DA",
"Z*	c #E1D39B",
"`*	c #C2B484",
" =	c #BA8F7B",
".=	c #E2A694",
"+=	c #E8AB99",
"@=	c #B28074",
"#=	c #C6B286",
"$=	c #DDCE99",
"%=	c #DBCB96",
"&=	c #DFD5B8",
"*=	c #DBDCE0",
"==	c #E5E6E6",
"-=	c #E2DFDE",
";=	c #DEBAAF",
">=	c #E4B1A2",
",=	c #C3A49B",
"'=	c #E3C2B8",
")=	c #E4C3B8",
"!=	c #E4C3B9",
"~=	c #E7C5BB",
"{=	c #C8AFA7",
"]=	c #DBAD9E",
"^=	c #DFAFA2",
"/=	c #E1CCC6",
"(=	c #E3E5E5",
"_=	c #E3E4E5",
":=	c #E1DDCD",
"<=	c #E1D8B9",
"[=	c #D1C8AF",
"}=	c #CDB4AA",
"|=	c #E5C3B9",
"1=	c #E1C1B6",
"2=	c #E1C0B5",
"3=	c #E0C0B5",
"4=	c #E4C2B7",
"5=	c #D3B3AD",
"6=	c #CDC2AC",
"7=	c #DCD4B7",
"8=	c #DED6BF",
"9=	c #E1E0E2",
"0=	c #D9D9D8",
"a=	c #D9D8D8",
"b=	c #DCDEDF",
"c=	c #DAE0E1",
"d=	c #DFE2E3",
"e=	c #DCDFE0",
"f=	c #DCE0E2",
"g=	c #DDE1E2",
"h=	c #DEE1E2",
"i=	c #DEE2E3",
"j=	c #E1E4E5",
"k=	c #E0E5E6",
"l=	c #DEE4E6",
"m=	c #DEE0E0",
"n=	c #DEDEDE",
"o=	c #DEDFDF",
"p=	c #DFE0E2",
"q=	c #DCDFE1",
"r=	c #DBDFE0",
"s=	c #DBDEE0",
"t=	c #DADDDF",
"u=	c #D9DCDE",
"v=	c #D9DCDD",
"w=	c #DADBDE",
"x=	c #D8D9DC",
"y=	c #D6D8D9",
"z=	c #D5D5D4",
"A=	c #D3D3D3",
". + @ # $ $ $ $ $ $ $ % % $ & * & & = - ; ; > > , = ' ' ) > ! & ",
"~ { ] ^ / ( _ _ _ : < [ } | 1 2 3 4 5 6 7 8 9 0 a b c d e f g h ",
"i j k l m n o p q r s t u v w x y z A B C D E F F G H I J K L M ",
"N O P Q R S T U V W X Y Z `  ...+.@.#.$.%.&.*.=.-.;.>.,.'.).!.~.",
"@ {.].^./.(._.:.<.[.}.|.1.2.3.4.5.6.7.8.9.0.a.b.c.d.e.f.g.h.i.j.",
"@ k.l.m.n.o.p.q.r.s.t.u.v.w.x.y.5.z.A.B.C.D.E.F.G.E.H.I.J.K.L.M.",
"@ N.O.P.Q.R.S.p.T.U.V.W.X.Y.Z.`. +.+++@+#+$+%+&+*+=+-+;+>+,+'+)+",
"!+~+{+]+^+/+(+_+:+<+[+}+|+1+2+3+4+5+6+7+8+9+0+a+b+c+d+e+f+@.g+h+",
"!+~+i+j+k+l+m+n+o+p+q+r+s+t+u+v+w+5+x+y+p.z+A+B+C+D+E+F+G+@.H+h+",
"!+I+J+K+L+M+N+O+P+Q+R+S+T+U+V+W+X+Y+Z+`+ @.@+@@@#@$@%@&@*@=@g+-@",
"i ;@>@,@'@)@!@~@Q+{@]@^@/@(@_@:@4+<@[@}@|@1@2@3@4@5@6@7@8@=@9@M ",
"i N.0@a@b@c@d@!@e@f@g@h@i@j@k@l@m@<@n@o@p@q@r@W.s@t@u@v@Y+w@x@y@",
"z@A@B@C@D@E@F@G@H@I@J@K@L@M@N@l@m@<@O@P@Q@R@S@T@U@V@W@X@Y@w@x@~.",
"i N.Z@`@ #.#+#@#####$#%#&#*#=#-#;#>#,#'#)#!#~#@#{#]#^#/#(#_#:#h+",
"<#[#}#|#1#d@2#q.q.2#3#4#5#6#7#8#9#0#a#b#c#d#e#f#g#h#i#j#k#l#m#n#",
"o#p#q#r#s#t#u#v#w#w#x#y#z#A#B#C#D#E#F#G#H#I#J#K#L#M#N#O#P#Q#R#S#",
"o#T#U#V#W#X#Y#Z#`# $.$+$@$#$$$%$&$*$=$-$;$>$,$'$)$!$~${$]$^$$ /$",
"($ $_$:$<$[$}$|$1$2$3$4$5$6$7$8$9$0$a$b$c$d$e$f$g$h$i$j$k$l$m$n$",
"o$p$q$r$s$t$u$v$w$x$y$z$A$B$C$D$E$F$G$H$I$J$K$L$M$N$O$P$Q$R$S$T$",
"o$U$V$W$X$Y$Z$`$ %.%+%@%#%$%%%&%*%=%-%;%>%,%'%)%!%~%{%]%^%/%(%_%",
"o$:%<%[%}%|%1%2%3%4%5%6%7%8%9%0%a%b%c%d%e%#@f%g%h%i%j%k%l%m%n%o%",
"p%q%r%s%t%u%v%&+D.o.w%x%y%z%A%D$B%C%D%E%F%G%H%&+I%l+J%K%L%M%N%_%",
"p%O%P%Q%m.R%S%T%U%V%W%X%Y%Z%`% &.&=%+&@&#&$&%&&&*&=&-&;&>&,&'&_%",
"o$O%P%)&o.W.!&~&{&*&]&^&/&(&_&D$:&<&[&}&|&1&2&D.3&4&5&6&7&8&9&o%",
"0&a&b&c&d&e&f&g&h&i&j&k&l&m&n&o&:&=%p&q&U.r&s&t&h&u&u&v&w&x&y&z&",
"o$A&B&C&D&E&F&G&H&s@I&J&K&L&M&o&:&<&N&O&P&@@Q&R&S&T&U&V&W&X&Y&z&",
"Z&`& *.*+*@*#*$*%*&***=*-*1$;*>*E$,*'*)*!*~*{*]*^*u&/*(*_*:*<*z&",
"Z&[*}*|*1*2*3*4*|.5*6*7*8*9*0*a*E$b*g$c*d*e.e*f*e&g*h*i*j*_*k*l*",
"m*O%n*o*p*q**+r*o.S&s*t*u*v*w*x*y*z*0$A*B*C*D*E*F*G*H*I*j*_*y&J*",
"K*L*M*N*O*P*q.Q*E.R*S*T*U*V*W*X*Y*8&Z*`* =F.d@.=d@+=@=#=$=%=&=*=",
"==-=;=>=,='=)=!=!='=~={=]=^=/=(=_=:=<=[=}=|=1=2=3=4=5=6=7=8=9=0=",
"2 a=b=c=d=e=f=g=h=i=i=j=k=l=m=n=n=o=n$p=h=q=r=s=t=u=v=w=x=y=z=A="};
